<svg xmlns="http://www.w3.org/2000/svg" width="190" height="70" viewBox="0 0 190 70"><g transform="translate(-1271.767 -539.743)"><rect width="190" height="70" transform="translate(1271.767 539.743)" fill="#fff"/><path d="M49.352,276.494,27.31,298.872H21.8v-5.594L43.842,270.9h5.51ZM32.821,270.9H27.31l-5.51,5.594v5.594h5.566l5.511-5.594Zm16.531,16.783h-5.51l-5.51,5.594v5.594h5.51l5.51-5.594Zm16.559-12.42H83.674l-17.455,20.5a1.526,1.526,0,0,0-.308.923v2.182H91.031v-4.364H72.961l17.762-21.119a1.589,1.589,0,0,0,.308-.923V270.9H65.912Zm97.455,13.65a5.818,5.818,0,1,1,11.636,0,6.087,6.087,0,0,1-.364,2.35,5.826,5.826,0,0,1-1.259,2.014,6.232,6.232,0,0,1-1.93,1.371,6.516,6.516,0,0,1-2.322.5c-3.58-.028-5.762-2.937-5.762-6.238Zm11.021-7.469c-1.315-1.539-3.245-2.154-5.818-2.154a9.293,9.293,0,0,0-3.692.671,9.413,9.413,0,0,0-3.133,2.07,9.043,9.043,0,0,0-2.042,3.161,9.4,9.4,0,0,0-.643,3.72,9.655,9.655,0,0,0,.615,3.776,9.382,9.382,0,0,0,2.042,3.245,9.519,9.519,0,0,0,6.909,2.937,7.513,7.513,0,0,0,3.217-.727,7.092,7.092,0,0,0,2.573-2.07v2.49h4.28v-19.58h-4.28v2.462Zm-33.706,7.469a5.818,5.818,0,1,1,11.636,0,6.086,6.086,0,0,1-.364,2.35,5.825,5.825,0,0,1-1.259,2.014,6.232,6.232,0,0,1-1.93,1.371,6.515,6.515,0,0,1-2.322.5c-3.58-.028-5.762-2.937-5.762-6.238Zm11.021-7.469c-1.315-1.539-3.245-2.154-5.818-2.154a9.293,9.293,0,0,0-3.692.671,9.315,9.315,0,0,0-5.175,5.259,9.93,9.93,0,0,0-.643,3.72,9.619,9.619,0,0,0,5.79,9.2,9.546,9.546,0,0,0,3.748.755,7.3,7.3,0,0,0,3.189-.727,7.091,7.091,0,0,0,2.573-2.07v2.462h4.28V270.928h-4.28v10.518Zm-45.231-1.734a10.242,10.242,0,0,1,3.273,2.154,9.978,9.978,0,0,1,2.21,3.245,10.564,10.564,0,0,1,.811,3.832,10.2,10.2,0,0,1-3.077,6.993,10.064,10.064,0,0,1-14.1,0,10.323,10.323,0,0,1-3.077-6.993,10.1,10.1,0,0,1,3.021-7.077,9.931,9.931,0,0,1,7.1-2.853A9.052,9.052,0,0,1,106.471,279.711Zm-7.916,5.2a5.739,5.739,0,0,0-1.762,4,5.822,5.822,0,0,0,11.636,0,5.731,5.731,0,0,0-5.818-5.594A5.851,5.851,0,0,0,98.555,284.914Zm35.385,1.51c0-4.392-3.413-7.469-7.972-7.469a6.724,6.724,0,0,0-3.049.559,6.8,6.8,0,0,0-2.462,1.9c-.056.084,0,.112,0,0v-2.462h-4.28v19.58h4.28v-10.6a5.055,5.055,0,0,1,.28-1.93,4.843,4.843,0,0,1,1.035-1.65,4.2,4.2,0,0,1,1.622-1.063,4.462,4.462,0,0,1,1.9-.308c2.769,0,4.336,1.538,4.336,4.671v10.853h4.28V286.424Zm50.629,7.217v4.9h.923V294.62l1.175,3.916h.811l1.175-3.916v3.916h.923v-4.9h-1.594l-.923,3.217-.923-3.217Zm-3.692,0v.867h1.091v4.028h.923v-4.028h1.091v-.867Z" transform="translate(1261.759 289.843)"/></g></svg>