<svg xmlns="http://www.w3.org/2000/svg" width="240" height="40" viewBox="0 0 240 40">
  <g id="그룹_1" data-name="그룹 1" transform="translate(0)">
    <rect id="사각형_1" data-name="사각형 1" width="240" height="40" fill="none"/>
    <path id="zonda-logo-vector" d="M61.161,278.892,29.672,310.86H21.8v-7.992L53.289,270.9h7.872ZM37.544,270.9H29.672L21.8,278.892v7.992h7.952l7.872-7.992Zm23.616,23.976H53.289l-7.872,7.992v7.992h7.872l7.872-7.992Zm23.656-17.742h25.375L85.257,306.424a2.18,2.18,0,0,0-.44,1.319v3.117H120.7v-6.234H94.887l25.375-30.17a2.27,2.27,0,0,0,.44-1.319V270.9H84.817Zm139.221,19.5a8.312,8.312,0,1,1,16.623,0,8.7,8.7,0,0,1-.519,3.357,8.323,8.323,0,0,1-1.8,2.877,8.9,8.9,0,0,1-2.757,1.958,9.307,9.307,0,0,1-3.317.719c-5.115-.04-8.232-4.2-8.232-8.911Zm15.744-10.669c-1.878-2.2-4.635-3.077-8.312-3.077a13.277,13.277,0,0,0-5.275.959,13.449,13.449,0,0,0-4.476,2.957,12.92,12.92,0,0,0-2.917,4.516,13.434,13.434,0,0,0-.919,5.315,13.793,13.793,0,0,0,.879,5.395,13.4,13.4,0,0,0,2.917,4.635,13.6,13.6,0,0,0,9.87,4.2,10.733,10.733,0,0,0,4.6-1.039,10.131,10.131,0,0,0,3.676-2.957v3.556h6.114V282.448h-6.114v3.517ZM191.63,296.634a8.312,8.312,0,1,1,16.623,0,8.694,8.694,0,0,1-.52,3.357,8.322,8.322,0,0,1-1.8,2.877,8.9,8.9,0,0,1-2.757,1.958,9.307,9.307,0,0,1-3.317.719c-5.115-.04-8.232-4.2-8.232-8.911Zm15.744-10.669c-1.878-2.2-4.635-3.077-8.312-3.077a13.277,13.277,0,0,0-5.275.959,13.307,13.307,0,0,0-7.393,7.512,14.186,14.186,0,0,0-.919,5.315,13.741,13.741,0,0,0,8.272,13.147A13.638,13.638,0,0,0,199.1,310.9a10.429,10.429,0,0,0,4.555-1.039,10.132,10.132,0,0,0,3.676-2.957v3.516h6.114V270.94h-6.114v15.025Zm-64.615-2.478a14.63,14.63,0,0,1,4.675,3.077,14.252,14.252,0,0,1,3.157,4.635,15.091,15.091,0,0,1,1.159,5.474,14.571,14.571,0,0,1-4.4,9.99,14.377,14.377,0,0,1-20.14,0,14.748,14.748,0,0,1-4.4-9.99,14.425,14.425,0,0,1,4.316-10.11,14.188,14.188,0,0,1,10.15-4.076A12.932,12.932,0,0,1,142.759,283.487ZM131.45,290.92a8.2,8.2,0,0,0-2.517,5.714,8.317,8.317,0,0,0,16.623,0,8.187,8.187,0,0,0-8.312-7.992A8.359,8.359,0,0,0,131.45,290.92ZM182,293.078c0-6.274-4.875-10.669-11.389-10.669a9.606,9.606,0,0,0-4.356.8,9.712,9.712,0,0,0-3.516,2.717c-.08.12,0,.16,0,0v-3.516h-6.114V310.38h6.114V295.236a7.222,7.222,0,0,1,.4-2.757,6.918,6.918,0,0,1,1.479-2.358,6,6,0,0,1,2.318-1.518,6.375,6.375,0,0,1,2.717-.44c3.956,0,6.194,2.2,6.194,6.673v15.5h6.114V293.078Zm72.328,10.31v6.993h1.319v-5.594l1.678,5.594h1.159l1.678-5.594v5.594h1.319v-6.993H259.2l-1.319,4.6-1.319-4.6Zm-5.275,0v1.239h1.558v5.754h1.319v-5.754h1.558v-1.239Z" transform="translate(-21.8 -270.9)"/>
  </g>
</svg>
